<mxfile host="app.diagrams.net" modified="2023-10-24T08:35:29.174Z" agent="Mozilla/5.0 (Windows NT 10.0; Win64; x64) AppleWebKit/537.36 (KHTML, like Gecko) Chrome/118.0.0.0 Safari/537.36" etag="V2nIyh26ljyI9HrI6ryy" version="22.0.6" type="github">
  <diagram name="Page-1" id="ivUg0w3_KEzgv5sulLjV">
    <mxGraphModel dx="1050" dy="574" grid="1" gridSize="10" guides="1" tooltips="1" connect="1" arrows="1" fold="1" page="1" pageScale="1" pageWidth="850" pageHeight="1100" math="0" shadow="0">
      <root>
        <mxCell id="0" />
        <mxCell id="1" parent="0" />
        <mxCell id="SAogeBl9PGHRehqJxf2d-10" value="" style="edgeStyle=orthogonalEdgeStyle;rounded=0;orthogonalLoop=1;jettySize=auto;html=1;fontFamily=Helvetica;fontSize=12;fontColor=default;shape=link;" edge="1" parent="1" source="SAogeBl9PGHRehqJxf2d-2" target="SAogeBl9PGHRehqJxf2d-3">
          <mxGeometry relative="1" as="geometry" />
        </mxCell>
        <mxCell id="SAogeBl9PGHRehqJxf2d-2" value="Presenter" style="rounded=0;whiteSpace=wrap;html=1;" vertex="1" parent="1">
          <mxGeometry x="240" y="260" width="120" height="60" as="geometry" />
        </mxCell>
        <mxCell id="SAogeBl9PGHRehqJxf2d-11" value="" style="rounded=0;orthogonalLoop=1;jettySize=auto;html=1;fontFamily=Helvetica;fontSize=12;fontColor=default;shape=link;" edge="1" parent="1" source="SAogeBl9PGHRehqJxf2d-3" target="SAogeBl9PGHRehqJxf2d-5">
          <mxGeometry relative="1" as="geometry" />
        </mxCell>
        <mxCell id="SAogeBl9PGHRehqJxf2d-13" style="rounded=0;orthogonalLoop=1;jettySize=auto;html=1;exitX=1;exitY=0.25;exitDx=0;exitDy=0;entryX=0;entryY=0.5;entryDx=0;entryDy=0;fontFamily=Helvetica;fontSize=12;fontColor=default;shape=link;" edge="1" parent="1" source="SAogeBl9PGHRehqJxf2d-3" target="SAogeBl9PGHRehqJxf2d-4">
          <mxGeometry relative="1" as="geometry" />
        </mxCell>
        <mxCell id="SAogeBl9PGHRehqJxf2d-14" value="" style="edgeStyle=orthogonalEdgeStyle;rounded=0;orthogonalLoop=1;jettySize=auto;html=1;fontFamily=Helvetica;fontSize=12;fontColor=default;shape=link;" edge="1" parent="1" source="SAogeBl9PGHRehqJxf2d-3" target="SAogeBl9PGHRehqJxf2d-8">
          <mxGeometry relative="1" as="geometry" />
        </mxCell>
        <mxCell id="SAogeBl9PGHRehqJxf2d-3" value="Interator" style="rounded=0;whiteSpace=wrap;html=1;" vertex="1" parent="1">
          <mxGeometry x="440" y="260" width="120" height="60" as="geometry" />
        </mxCell>
        <mxCell id="SAogeBl9PGHRehqJxf2d-4" value="Entity" style="rounded=0;whiteSpace=wrap;html=1;" vertex="1" parent="1">
          <mxGeometry x="640" y="200" width="120" height="60" as="geometry" />
        </mxCell>
        <mxCell id="SAogeBl9PGHRehqJxf2d-5" value="Entity" style="rounded=0;whiteSpace=wrap;html=1;" vertex="1" parent="1">
          <mxGeometry x="640" y="300" width="120" height="60" as="geometry" />
        </mxCell>
        <mxCell id="SAogeBl9PGHRehqJxf2d-9" value="" style="edgeStyle=orthogonalEdgeStyle;rounded=0;orthogonalLoop=1;jettySize=auto;html=1;fontFamily=Helvetica;fontSize=12;fontColor=default;shape=link;" edge="1" parent="1" source="SAogeBl9PGHRehqJxf2d-1" target="SAogeBl9PGHRehqJxf2d-2">
          <mxGeometry relative="1" as="geometry">
            <Array as="points">
              <mxPoint x="240" y="290" />
              <mxPoint x="240" y="290" />
            </Array>
          </mxGeometry>
        </mxCell>
        <object label="VIew" id="SAogeBl9PGHRehqJxf2d-1">
          <mxCell style="rounded=0;whiteSpace=wrap;html=1;" vertex="1" parent="1">
            <mxGeometry x="40" y="260" width="120" height="60" as="geometry" />
          </mxCell>
        </object>
        <mxCell id="SAogeBl9PGHRehqJxf2d-8" value="Repository" style="rounded=0;whiteSpace=wrap;html=1;strokeColor=default;align=center;verticalAlign=middle;fontFamily=Helvetica;fontSize=12;fontColor=default;fillColor=default;" vertex="1" parent="1">
          <mxGeometry x="440" y="380" width="120" height="60" as="geometry" />
        </mxCell>
      </root>
    </mxGraphModel>
  </diagram>
</mxfile>
